# xmcd CD database file
#
# Track frame offsets:
#	182
#	22980
#	46485
#	62492
#	85487
#	103702
#	120977
#	142107
#	170742
#	183160
#	211102
#	255587
#	271107
#
# Disc length: 4112 seconds
#
# Revision: 2
# Processed by: cddbd v1.4b41PL1 Copyright (c) Steve Scherf et al.
# Submitted via: Feurio! 1.50.2ß - http://www.feurio.com
#
DISCID=ae100e0d
DTITLE=Dannemann - Love and Bread
DYEAR=1900
DGENRE=
TTITLE0=L. A. (A Liftime In L. A.)
TTITLE1=The Laughter
TTITLE2=Silly Rock'n Roll
TTITLE3=Too Many Roads
TTITLE4=Sailing On White Horse
TTITLE5=Lay Down Mother
TTITLE6=One-eyed-boy
TTITLE7=I Just Wanna Make Love To You
TTITLE8=Salvation Army
TTITLE9=You 'll Be Back Soon
TTITLE10=Love And Bread
TTITLE11=Clacton-on-sea
TTITLE12=Here To Stay
EXTD=
EXTT0=
EXTT1=
EXTT2=
EXTT3=
EXTT4=
EXTT5=
EXTT6=
EXTT7=
EXTT8=
EXTT9=
EXTT10=
EXTT11=
EXTT12=
PLAYORDER=
